<svg width="180" height="180" viewBox="0 0 180 180" fill="none" xmlns="http://www.w3.org/2000/svg">
<rect width="180" height="180" rx="27" fill="white"/>
<path d="M99.42 46.04V126.8C99.42 130.4 99.98 133.08 101.1 134.84C102.22 136.52 104.22 137.36 107.1 137.36V139.88C104.62 139.64 102.14 139.52 99.66 139.52C96.3 139.52 93.14 139.64 90.18 139.88C87.3 140.12 84.62 140.56 82.14 141.2V60.44C82.14 56.84 81.58 54.2 80.46 52.52C79.42 50.76 77.42 49.88 74.46 49.88V47.36C77.02 47.6 79.5 47.72 81.9 47.72C85.18 47.72 88.3 47.6 91.26 47.36C94.22 47.04 96.94 46.6 99.42 46.04ZM68.82 76.28C72.34 76.28 75.42 76.88 78.06 78.08C80.78 79.2 82.9 81.12 84.42 83.84L82.98 85.16C81.94 83.24 80.54 81.88 78.78 81.08C77.1 80.2 75.3 79.76 73.38 79.76C69.3 79.76 66.06 82.16 63.66 86.96C61.26 91.68 60.1 99 60.18 108.92C60.18 115.72 60.62 121.16 61.5 125.24C62.46 129.24 63.78 132.12 65.46 133.88C67.22 135.64 69.22 136.52 71.46 136.52C74.18 136.52 76.62 135.44 78.78 133.28C80.94 131.12 82.1 128.2 82.26 124.52L82.86 128.72C81.66 132.96 79.7 136.2 76.98 138.44C74.34 140.6 70.86 141.68 66.54 141.68C61.82 141.68 57.58 140.52 53.82 138.2C50.14 135.88 47.26 132.32 45.18 127.52C43.1 122.64 42.06 116.36 42.06 108.68C42.06 101.4 43.22 95.4 45.54 90.68C47.86 85.88 51.02 82.28 55.02 79.88C59.1 77.48 63.7 76.28 68.82 76.28ZM125.419 123.2C128.539 123.2 131.019 124.04 132.859 125.72C134.699 127.32 135.619 129.56 135.619 132.44C135.619 135.32 134.699 137.6 132.859 139.28C131.019 140.88 128.539 141.68 125.419 141.68C122.299 141.68 119.819 140.88 117.979 139.28C116.139 137.6 115.219 135.32 115.219 132.44C115.219 129.56 116.139 127.32 117.979 125.72C119.819 124.04 122.299 123.2 125.419 123.2Z" fill="black"/>
</svg>
